<?xml version="1.0" standalone="no"?>
<!DOCTYPE svg PUBLIC "-//W3C//DTD SVG 20010904//EN"
 "http://www.w3.org/TR/2001/REC-SVG-20010904/DTD/svg10.dtd">
<svg version="1.0" xmlns="http://www.w3.org/2000/svg"
 width="500.000000pt" height="500.000000pt" viewBox="0 0 500.000000 500.000000"
 preserveAspectRatio="xMidYMid meet">
<metadata>
Created by potrace 1.11, written by Peter Selinger 2001-2013
</metadata>
<g transform="translate(0.000000,500.000000) scale(0.100000,-0.100000)"
fill="#000000" stroke="none">
<path d="M756 4989 c-63 -10 -198 -55 -256 -84 -224 -114 -398 -329 -473 -585
l-22 -75 -3 -1695 c-2 -1212 0 -1718 8 -1775 13 -94 59 -233 95 -287 14 -21
25 -40 25 -44 0 -11 73 -107 120 -158 105 -114 277 -214 442 -259 l83 -22
1725 0 1725 0 85 23 c328 87 576 335 662 662 l23 85 0 1730 0 1730 -21 80
c-81 301 -305 541 -600 641 -129 44 -112 43 -1884 42 -927 0 -1707 -4 -1734
-9z"/>
</g>
</svg>
