<?xml version="1.0" encoding="UTF-8" standalone="no"?>
<!-- Created with Inkscape (http://www.inkscape.org/) -->

<svg
   xmlns:dc="http://purl.org/dc/elements/1.1/"
   xmlns:cc="http://creativecommons.org/ns#"
   xmlns:rdf="http://www.w3.org/1999/02/22-rdf-syntax-ns#"
   xmlns:svg="http://www.w3.org/2000/svg"
   xmlns="http://www.w3.org/2000/svg"
   xmlns:sodipodi="http://sodipodi.sourceforge.net/DTD/sodipodi-0.dtd"
   xmlns:inkscape="http://www.inkscape.org/namespaces/inkscape"
   width="50"
   height="50"
   viewBox="0 0 49.999999 49.999997"
   id="svg2"
   version="1.1"
   inkscape:version="0.91 r13725"
   sodipodi:docname="buddy.svg"
   inkscape:export-filename="/Users/jpadilla/Desktop/areyouin_landing/images/friends.png"
   inkscape:export-xdpi="252"
   inkscape:export-ydpi="252">
  <defs
     id="defs4" />
  <sodipodi:namedview
     id="base"
     pagecolor="#ffffff"
     bordercolor="#666666"
     borderopacity="1.0"
     inkscape:pageopacity="0.0"
     inkscape:pageshadow="2"
     inkscape:zoom="5.6"
     inkscape:cx="22.066455"
     inkscape:cy="34.159853"
     inkscape:document-units="px"
     inkscape:current-layer="layer1"
     showgrid="false"
     inkscape:window-width="1555"
     inkscape:window-height="902"
     inkscape:window-x="95"
     inkscape:window-y="62"
     inkscape:window-maximized="0"
     fit-margin-top="0"
     fit-margin-left="0"
     fit-margin-right="0"
     fit-margin-bottom="0"
     units="px" />
  <metadata
     id="metadata7">
    <rdf:RDF>
      <cc:Work
         rdf:about="">
        <dc:format>image/svg+xml</dc:format>
        <dc:type
           rdf:resource="http://purl.org/dc/dcmitype/StillImage" />
        <dc:title />
      </cc:Work>
    </rdf:RDF>
  </metadata>
  <g
     inkscape:label="Capa 1"
     inkscape:groupmode="layer"
     id="layer1"
     transform="translate(-82.323852,-334.29095)">
    <g
       id="g4160"
       transform="matrix(0.24384287,0,0,0.24384287,62.504358,286.65333)">
      <g
         transform="matrix(0.5,0,0,0.5,108.58961,87.464738)"
         style="fill:#ff4081;fill-opacity:1;stroke:#ffffff;stroke-width:1.99999976;stroke-miterlimit:4;stroke-dasharray:none;stroke-opacity:1"
         id="g4154">
        <path
           style="fill:#ff4081;fill-opacity:1;stroke:#ffffff;stroke-width:1.99999976;stroke-miterlimit:4;stroke-dasharray:none;stroke-opacity:1"
           d="m 269.64258,393.35938 a 60.057667,71.720833 0 0 1 -29.3086,9.21874 60.057667,71.720833 0 0 1 -29.38476,-9.21289 c -48.02113,3.78921 -84.76172,27.04872 -84.76172,55.36719 0,30.97963 43.96174,55.91992 98.57031,55.91992 l 31.15235,0 c 54.60857,0 98.57031,-24.94029 98.57031,-55.91992 0,-28.33338 -36.77958,-51.60239 -84.83789,-55.37304 z"
           id="path4156"
           inkscape:connector-curvature="0" />
        <ellipse
           style="fill:#ff4081;fill-opacity:1;stroke:#ffffff;stroke-width:1.99999976;stroke-miterlimit:4;stroke-dasharray:none;stroke-opacity:1"
           id="ellipse4158"
           cx="240.33401"
           cy="328.85803"
           rx="60.057667"
           ry="71.720833" />
      </g>
      <g
         transform="matrix(0.5,0,0,0.5,18.686039,87.464738)"
         style="fill:#ff4081;fill-opacity:1;stroke:#ffffff;stroke-width:1.99999976;stroke-miterlimit:4;stroke-dasharray:none;stroke-opacity:1"
         id="g4148">
        <path
           style="fill:#ff4081;fill-opacity:1;stroke:#ffffff;stroke-width:1.99999976;stroke-miterlimit:4;stroke-dasharray:none;stroke-opacity:1"
           d="m 269.64258,393.35938 a 60.057667,71.720833 0 0 1 -29.3086,9.21874 60.057667,71.720833 0 0 1 -29.38476,-9.21289 c -48.02113,3.78921 -84.76172,27.04872 -84.76172,55.36719 0,30.97963 43.96174,55.91992 98.57031,55.91992 l 31.15235,0 c 54.60857,0 98.57031,-24.94029 98.57031,-55.91992 0,-28.33338 -36.77958,-51.60239 -84.83789,-55.37304 z"
           id="path4150"
           inkscape:connector-curvature="0" />
        <ellipse
           style="fill:#ff4081;fill-opacity:1;stroke:#ffffff;stroke-width:1.99999976;stroke-miterlimit:4;stroke-dasharray:none;stroke-opacity:1"
           id="ellipse4152"
           cx="240.33401"
           cy="328.85803"
           rx="60.057667"
           ry="71.720833" />
      </g>
      <g
         id="g4142"
         style="fill:#ff4081;fill-opacity:1;stroke:#ffffff;stroke-width:1.99999976;stroke-miterlimit:4;stroke-dasharray:none;stroke-opacity:1"
         transform="matrix(0.5,0,0,0.5,63.637819,127.41448)">
        <path
           inkscape:connector-curvature="0"
           id="path4144"
           d="m 269.64258,393.35938 a 60.057667,71.720833 0 0 1 -29.3086,9.21874 60.057667,71.720833 0 0 1 -29.38476,-9.21289 c -48.02113,3.78921 -84.76172,27.04872 -84.76172,55.36719 0,30.97963 43.96174,55.91992 98.57031,55.91992 l 31.15235,0 c 54.60857,0 98.57031,-24.94029 98.57031,-55.91992 0,-28.33338 -36.77958,-51.60239 -84.83789,-55.37304 z"
           style="fill:#ff4081;fill-opacity:1;stroke:#ffffff;stroke-width:1.99999976;stroke-miterlimit:4;stroke-dasharray:none;stroke-opacity:1" />
        <ellipse
           ry="71.720833"
           rx="60.057667"
           cy="328.85803"
           cx="240.33401"
           id="ellipse4146"
           style="fill:#ff4081;fill-opacity:1;stroke:#ffffff;stroke-width:1.99999976;stroke-miterlimit:4;stroke-dasharray:none;stroke-opacity:1" />
      </g>
    </g>
  </g>
</svg>
